<svg id="Layer_1" data-name="Layer 1" xmlns="http://www.w3.org/2000/svg" viewBox="0 0 725.13 147.22"><defs><style>.cls-1{fill:#a356a0;}.cls-2{fill:#7f1e7c;}.cls-3{fill:#faab3b;}.cls-4{fill:#ffd43a;}.cls-5{fill:#7f8082;}.cls-6{fill:#90298d;}.cls-7{fill:#c5c7c9;}.cls-8{fill:#bbbdbf;}.cls-9{fill:#852683;}.cls-10{fill:#aeaab5;}.cls-11{fill:#dbd5e1;}.cls-12{fill:#939099;}.cls-13{fill:#fff;}.cls-14{fill:#973d92;}.cls-15{fill:#caccce;}.cls-16{fill:#adafb1;}.cls-17{fill:#e8e8e9;}.cls-18{fill:#8c3889;}.cls-19{fill:#b2b0b9;}.cls-20{fill:#1fb2de;}.cls-21{fill:#aedaef;}</style></defs><title>myrepublic-logo</title><path class="cls-1" d="M628.8,1.35H627a728.4,728.4,0,0,0-16.62,108.43s8.89,6,18.21,5.21c0,0,3.61-57.86,15.39-108.25,0,0-10.86-5.09-15.17-5.38" transform="translate(-1 -1.34)"/><path class="cls-1" d="M715,82.51c-.12.42-.24.84-.37,1.25-7.49,24.78-26.43,23.63-30.26,7.83-5-20.69,8.75-42.87,14.65-41.16s-1.76,18.11-1.76,18.11-.84,3,11.48,6.47C719.23,78,721,29.08,686.18,41.9,669.72,48,664,74.24,668.1,93.54c-3.52,6.45-8.66,14.09-11.37,9.63-7-11.52,7-56.24,7-56.24-2.17-3.23-17.91-5-17.91-5-5.49,12-14.79,63.73-2.66,70.71,12.55,7.22,24.24-.42,30.23-5.78a18.46,18.46,0,0,0,7.92,6.9c20.48,8.7,43-6.91,44.8-22.37.36-3.1-11.12-8.84-11.12-8.84" transform="translate(-1 -1.34)"/><path class="cls-1" d="M233.29,6.69s-9.53-4.06-15.41-4.06c-9.4,0-32.05,70.42-32.05,70.42-4.34-3.81,0-61.45,0-61.45-3.61-5.38-21.84,0-21.84,0-20.3,28.92-33.22,93.09-35.31,104,2.4,2.69,19.11,9.44,19.11,9.44,5.38-29.67,20.41-81.77,20.41-81.77s.34,41.94,2.82,57.27c1.59,9.8,16.17,7,16.17,7,4.89-21.75,30-77.7,30-77.7s-4.28,78.54-2.48,85.17,22,6.68,22,6.68c-4.37-22.81-3.48-115-3.48-115" transform="translate(-1 -1.34)"/><path class="cls-1" d="M280.89,41.34s-8,60.82-18.05,62.31c-12.15,1.79,4.51-55.22,4.51-55.22s1.45-3.75-19.29-5.47c0,0-17.31,50.92-3.74,65.93s27.95-1.65,27.95-1.65l-5,32s3.46,6.94,16.39,9.35c0,0,11.74-93.27,14.16-101.94,0,0-5.89-4.33-17-5.28" transform="translate(-1 -1.34)"/><path class="cls-1" d="M577.37,104.51c-12.47-2.58,1.28-50.43,10.19-49.21,9.9,1.36,1.69,51.67-10.19,49.21M576.3,46.19S582.35,11,585,6.45c0,0-10.62-5.48-18-5.1,0,0-17.54,62.59-12.81,94.95-3.64,6.5-8.35,10.62-11-4.3-3.47-19.6,4.48-47.58,4.48-47.58s-9.64-6.76-18.74-6c0,0-10.45,63.33-17.4,64.54-9.87,1.72,5.05-59.89,5.05-59.89s-9.29-3.27-16.37-2.64c0,0-24.47,59.82-.62,73s29.15-18.25,29.15-18.25,3.67,31.91,29.37,13.68a12.5,12.5,0,0,0,7.13,5.91c36.9,11.06,43.26-32.41,44.44-38.76,2.12-11.42.62-48.44-33.34-29.73" transform="translate(-1 -1.34)"/><path class="cls-1" d="M453,104.82c-12.82-4.41,2.79-52.72,12.38-51.45,7.43,1,3.14,56.79-12.38,51.45M325.58,63.7c2.51-14.18,5.1-28.52,7-39.2,24,2.74,38.11,33.4-7,39.2m71.54-6.28c2.65-7.68,7.12-13.11,10-12.14s3,8,.35,15.65-7.12,13.11-10,12.14-3-8-.35-15.64m53.36-10s2.83-10.4-15.72-10.4c0,0-3.32,23.63-7,49.34a46.58,46.58,0,0,0-7.78-3s-3.37,18.93-20.6,22.8c-14.74,3.31-12.28-19.59-10.12-25.57,0,0,26.51,18.7,32.71-16.65,5.73-32.62-31.49-37.5-43.55-4.94-7,18.83-8.66,32.83-4.5,42.94C364.41,95.44,344.19,80.79,343,73c10.82-3.27,21.82-8.47,26.82-16.58,10.61-17.23-3.84-38-35-43.72l1-5.5s-14-5.29-18.07,0a16.3,16.3,0,0,0-1.52,4.09c-20.49.86-22.66,11-22.66,11s3.58,7.06,7.2,10.42c0,0,2.88-4.85,12.12-7.32-6.57,30.8-16.46,89.38-16.46,89.38v1.63s21,4.9,20.6,0c-.14-1.89,2.62-18.55,6.06-38.31,8,8.91,36.52,40.58,38.38,41.29s11.77-7.08,15.75-11.8a31.21,31.21,0,0,0,12.07,9.16c12.85,5.91,27,1.63,35.29-8.42-1.71,11.63-3.33,22.39-4.58,30.17,0,0,5.31,6.34,16.23,7.7l6.31-36.63S468.14,137.36,483.19,88c14.1-46.26-18.06-58.8-32.7-40.52" transform="translate(-1 -1.34)"/><path class="cls-1" d="M654.92,38A10.81,10.81,0,1,0,644,27.18,10.85,10.85,0,0,0,654.92,38" transform="translate(-1 -1.34)"/><path class="cls-2" d="M23.82,70.58l-1.75-1.95a13.06,13.06,0,0,0-7.25-3.73,9.78,9.78,0,0,0-5.88,1.24c-2.38,1.29-4,1.81-5.27,1.67a2.92,2.92,0,0,1-2.55-2.05c-1.27-4.19,7.8-12,7.89-12,4.84-4.13,10.81-6.24,16-5.65a14.74,14.74,0,0,1,10.3,6.2l1.07,1.46Z" transform="translate(-1 -1.34)"/><path class="cls-2" d="M72.12,120.53a2.89,2.89,0,0,1-2.05-1.23c-.85-1.22-.88-3-.09-6.21,1.95-8-5.45-11.89-5.77-12l-2.33-1.21L73.05,83.93l1.68.67A14.75,14.75,0,0,1,83.35,93c1.89,4.83,1.37,11.15-1.38,16.89,0,.11-5.4,11.19-9.85,10.68" transform="translate(-1 -1.34)"/><path class="cls-3" d="M44.75,104.13,38,107.79l-.12-5.32-14.24,6.46,2.45-16.39L21.08,94l2.63-8.16q-.92-1.09-1.7-2.05c-1.43-1.79-2.47-3.23-3.07-4.09l-7.68,23.84,7-2-2.72,18.14,16.15-7.32.14,6.14,19.7-10.75c-.61-.28-1.2-.56-1.8-.85-1.74-.85-3.42-1.77-5-2.74" transform="translate(-1 -1.34)"/><path class="cls-4" d="M46.22,105c-.5-.28-1-.56-1.47-.86.48.29,1,.58,1.47.86" transform="translate(-1 -1.34)"/><path class="cls-4" d="M22.83,84.82l-.06-.08.06.08" transform="translate(-1 -1.34)"/><path class="cls-4" d="M23.27,85.34l-.1-.12.1.12" transform="translate(-1 -1.34)"/><path class="cls-4" d="M22.42,84.31l0,0Z" transform="translate(-1 -1.34)"/><path class="cls-4" d="M49.74,106.85l-1.47-.74,1.47.74" transform="translate(-1 -1.34)"/><path class="cls-4" d="M22,83.82h0Z" transform="translate(-1 -1.34)"/><path class="cls-4" d="M23.71,85.86,21.08,94l5.06-1.48-2.45,16.39,14.24-6.46.12,5.32,6.71-3.66a88.06,88.06,0,0,1-21-18.27" transform="translate(-1 -1.34)"/><path class="cls-4" d="M47.77,105.84l-1.08-.59,1.08.59" transform="translate(-1 -1.34)"/><path class="cls-5" d="M56.91,103.65a5,5,0,0,1-1.47-.39C33,93.74,22.51,76.16,22.08,75.42a5.25,5.25,0,0,1-.57-4l.16-.59-2.73,8.9c.61.86,1.64,2.3,3.08,4.09h0l.81,1,.34.4.1.12.44.52a87.93,87.93,0,0,0,21,18.27c.48.29,1,.57,1.47.86l.47.26,1.08.59.5.26,1.47.74c.61.3,1.22.59,1.85.87l9.45-4.9h0c-.77.36-1.25.57-1.38.62a5.48,5.48,0,0,1-2.74.2" transform="translate(-1 -1.34)"/><path class="cls-6" d="M109.66,11.09c-12-12-35.2-6.25-35.19-6.22A48.92,48.92,0,0,0,48.73,20.26C30.71,40,22.89,66.44,21.67,70.82l-.16.59a5.26,5.26,0,0,0,.57,4c.43.75,11,18.32,33.35,27.84a5,5,0,0,0,1.48.39,5.5,5.5,0,0,0,2.74-.2c.13-.06.61-.27,1.38-.62,5.75-2.67,27.88-13.77,44.51-32.89A46.45,46.45,0,0,0,117.4,43.47c2.31-21.29-6.36-31-7.75-32.38" transform="translate(-1 -1.34)"/><path class="cls-7" d="M117.79,36.76h0c.07-16.65-6.9-24.45-8.13-25.67C101.08,2.55,86.9,3,79.42,4l0,.13v0c0,.13.16.5.16.51,2.92,9,12.24,18.82,13.82,20.22a50.72,50.72,0,0,0,24.33,12.89h0c0,.11,0,.22,0,.33h0Z" transform="translate(-1 -1.34)"/><path class="cls-8" d="M79.43,4h0l-.16,0,.16,0" transform="translate(-1 -1.34)"/><path class="cls-8" d="M117.78,37.76a50.77,50.77,0,0,1-24.32-12.9c-1.58-1.4-10.9-11.18-13.82-20.22,0,0-.13-.38-.16-.51v0s0-.09,0-.13l-.16,0-.16,0a44.09,44.09,0,0,0-4.64.85h-.05c2,5.9,8.75,15.91,17.85,24.47a63.61,63.61,0,0,0,25.12,14.27c0-.06,0-.11,0-.16.2-1.89.32-3.68.37-5.38,0-.11,0-.22,0-.32Z" transform="translate(-1 -1.34)"/><path class="cls-9" d="M117.52,31h0a55.29,55.29,0,0,1,.27,5.78v.53a55.27,55.27,0,0,0-.27-6.32" transform="translate(-1 -1.34)"/><path class="cls-10" d="M117.51,31l-.07,0c-1,1.79-2.19,3.71-3.52,5.77a36.52,36.52,0,0,0,3.86,1h0c0-.15,0-.31,0-.47v-.53a55.31,55.31,0,0,0-.27-5.78" transform="translate(-1 -1.34)"/><path class="cls-11" d="M117.42,43.35v0h0v0m0-.06s0,0,0,0,0,0,0,0m0-.06a0,0,0,0,1,0,0,0,0,0,0,0,0,0m0-.06v0m0-.05v0m0,0h0" transform="translate(-1 -1.34)"/><path class="cls-9" d="M117.78,37.81c0,.09,0,.18,0,.27,0,1.68-.15,3.44-.35,5.29a.05.05,0,0,0,0,0,0,0,0,0,0,0,0,.2.2,0,0,1,0,0,0,0,0,0,1,0,0v0a.08.08,0,0,1,0,0v0s0,0,0,0v0s0,0,0,0h0c.18-1.74.28-3.41.33-5h0c0-.09,0-.18,0-.27" transform="translate(-1 -1.34)"/><path class="cls-10" d="M117.78,37.81c0,.09,0,.18,0,.27h0c0-.09,0-.18,0-.27" transform="translate(-1 -1.34)"/><path class="cls-11" d="M21.88,70.11c-.08.28-.15.52-.2.71.05-.19.12-.43.2-.71" transform="translate(-1 -1.34)"/><path class="cls-9" d="M110.86,41.35q-.64.93-1.33,1.89C97.12,60.69,79.34,71.42,56.11,74.53a47,47,0,0,1-6.23.44C31.72,75,27.66,62.67,24.36,62.48c-1.24,3.45-2.05,6.12-2.49,7.61h0l-.2.71-.16.59a5.38,5.38,0,0,0-.17,1.32,5.28,5.28,0,0,0,.73,2.69,74.79,74.79,0,0,0,33.36,27.84,5.1,5.1,0,0,0,1.47.39,10.26,10.26,0,0,0,1.15.08,4.07,4.07,0,0,0,1.6-.28c.13-.05.61-.26,1.37-.62,5.75-2.67,27.87-13.77,44.51-32.89a46.49,46.49,0,0,0,11.87-26.46l0,.16a49.65,49.65,0,0,1-6.52-2.28" transform="translate(-1 -1.34)"/><path class="cls-11" d="M117.41,43.41a.39.39,0,0,0,0,.06.39.39,0,0,1,0-.06m0,0h0" transform="translate(-1 -1.34)"/><path class="cls-9" d="M117.41,43.39v.08s0,0,0-.06h0" transform="translate(-1 -1.34)"/><path class="cls-12" d="M113.92,36.78q-1.4,2.18-3.06,4.57a49.07,49.07,0,0,0,6.52,2.28l0-.16s0-.05,0-.08h0q.29-2.78.35-5.29c0-.09,0-.18,0-.27a.26.26,0,0,0,0-.06h0a37.54,37.54,0,0,1-3.86-1" transform="translate(-1 -1.34)"/><path class="cls-2" d="M32.86,99.13a3.1,3.1,0,0,1-1.65-.68C30,97.51,27,95,39.93,76.32c4.19-6,8-8.77,11.56-8.36a6.14,6.14,0,0,1,3.19,1.38,6.6,6.6,0,0,1,2.38,4.76c.2,3.37-1.82,7.3-6,11.7C45,92.14,37,99.6,32.86,99.13" transform="translate(-1 -1.34)"/><path class="cls-13" d="M87.12,3.47A60,60,0,0,0,79.43,4a59.93,59.93,0,0,1,7-.51h.72l1.75,0-1.75,0" transform="translate(-1 -1.34)"/><path class="cls-14" d="M110.8,12.4c2,2.55,5.66,8.46,6.7,18.5h0s0,.06,0,.08c-1-10.09-4.71-16-6.71-18.58M86.39,3.47a59.47,59.47,0,0,0-7,.51,60.33,60.33,0,0,1,7-.51m0,0h0Z" transform="translate(-1 -1.34)"/><path class="cls-15" d="M94.94,11.09a27,27,0,0,1-2.88-.16c-4.75-.5-8.43-2.06-8.25-3.5.15-1.12,2.67-1.83,6-1.83a27.47,27.47,0,0,1,2.87.16c4.76.51,8.45,2.08,8.26,3.51-.16,1.12-2.66,1.83-6,1.83M87.12,3.47h-.72a59.84,59.84,0,0,0-7,.51l0,.13v0c0,.13.16.5.16.51,2.92,9,12.24,18.82,13.82,20.23A49.61,49.61,0,0,0,108.93,35a55.65,55.65,0,0,0,8.51-4l.06-.12c-1-10-4.7-16-6.7-18.5h0a15.05,15.05,0,0,0-1.15-1.31C104,5.45,95.88,3.73,88.87,3.5l-1.75,0" transform="translate(-1 -1.34)"/><path class="cls-13" d="M79.3,4a43.8,43.8,0,0,0-4.83.88A48.91,48.91,0,0,0,48.73,20.26l-.33.36.33-.36A48.91,48.91,0,0,1,74.47,4.87,44.11,44.11,0,0,1,79.29,4Z" transform="translate(-1 -1.34)"/><path class="cls-14" d="M74.47,4.87A48.9,48.9,0,0,0,48.73,20.26l-.33.36c-.85.95-1.68,1.91-2.49,2.88.81,6.11,7.08,11,16.36,13.77a16.9,16.9,0,0,1,24.09,2.34c1.1-.07,2.2-.16,3.32-.28A83,83,0,0,0,102.47,37a66.89,66.89,0,0,1-10.21-7.66C83.16,20.79,76.46,10.78,74.42,4.88ZM79.29,4a43.6,43.6,0,0,0-4.82.87A42.64,42.64,0,0,1,79.11,4l.16,0h0" transform="translate(-1 -1.34)"/><path class="cls-16" d="M79.43,4,79.3,4h0l.16,0" transform="translate(-1 -1.34)"/><path class="cls-16" d="M79.43,4h0l-.16,0-.16,0a42.52,42.52,0,0,0-4.64.85h-.05c2,5.9,8.75,15.91,17.85,24.48A67,67,0,0,0,102.47,37c2.26-.6,4.41-1.28,6.45-2A49.61,49.61,0,0,1,93.45,24.87c-1.58-1.41-10.9-11.18-13.82-20.23,0,0-.13-.38-.16-.51v0l0-.14" transform="translate(-1 -1.34)"/><path class="cls-17" d="M89.85,5.6c-3.38,0-5.9.71-6,1.83-.17,1.44,3.51,3,8.25,3.5a26.73,26.73,0,0,0,2.88.16c3.38,0,5.89-.71,6-1.83.19-1.43-3.51-3-8.26-3.51a27.57,27.57,0,0,0-2.87-.16" transform="translate(-1 -1.34)"/><path class="cls-18" d="M117.51,30.89h0V31h0s0-.05,0-.08" transform="translate(-1 -1.34)"/><path class="cls-19" d="M117.51,30.9l-.07.12.07,0s0,0,0-.07" transform="translate(-1 -1.34)"/><path class="cls-13" d="M90.07,50.18a16.9,16.9,0,1,1-16.9-16.9,16.9,16.9,0,0,1,16.9,16.9" transform="translate(-1 -1.34)"/><path class="cls-20" d="M73.18,63.5A13.32,13.32,0,1,1,86.49,50.18,13.33,13.33,0,0,1,73.18,63.5" transform="translate(-1 -1.34)"/><path class="cls-21" d="M75.74,51.85a18.19,18.19,0,0,0-2.28.14c-5,.63-8.85,3.13-8.54,5.57C65.19,59.63,68.31,61,72.3,61a18.44,18.44,0,0,0,2.27-.14c5-.65,8.84-3.14,8.52-5.59-.25-2.06-3.37-3.42-7.35-3.42" transform="translate(-1 -1.34)"/></svg>